# xmcd
#
# Track frame offsets: 
#        150
#        13252
#        26299
#
# Disc length: 577 seconds
#
# Revision: 0
# Processed by: cddbd v1.5.2PL0 Copyright (c) Steve Scherf et al.
# Submitted via: ExactAudioCopy v0.99pb4
#
DISCID=18023f03
DTITLE=Spider Murphy Gang - Do is da Wurm drin MCD2002
DYEAR=2002
DGENRE=Classic Rock
TTITLE0=Do is da Wurm drin (Radio Version)
TTITLE1=Do is da Wurm drin (Besenkammer Version)
TTITLE2=Viva la Rock'n Roll
EXTD=
EXTT0=
EXTT1=
EXTT2=
PLAYORDER=
